<?xml version="1.0" encoding="utf-8"?>
<!-- Generator: Adobe Illustrator 19.0.1, SVG Export Plug-In . SVG Version: 6.00 Build 0)  -->
<!DOCTYPE svg PUBLIC "-//W3C//DTD SVG 1.1//EN" "http://www.w3.org/Graphics/SVG/1.1/DTD/svg11.dtd">
<svg version="1.1" id="Layer_1" xmlns="http://www.w3.org/2000/svg" xmlns:xlink="http://www.w3.org/1999/xlink" x="0px" y="0px"
	 viewBox="-335 295.7 120.7 22.3" enable-background="new -335 295.7 120.7 22.3" xml:space="preserve">
<path fill="#29A1E6" d="M-318.1,311.8c0,1.9-1.5,3.4-3.4,3.4h-9.1c-1.9,0-3.4-1.5-3.4-3.4v-9.2c0-1.9,1.5-3.4,3.4-3.4h9.2
	c1.9,0,3.4,1.5,3.4,3.4v9.2H-318.1z"/>
<path fill="#FFFFFF" d="M-304.9,309.8c0,2.3-1.8,3.7-4.5,3.7c-1.8,0-3.1-0.4-4.2-1.3c-0.4-0.3-0.4-0.9-0.2-1.3
	c0.3-0.4,0.8-0.5,1.3-0.2c0.8,0.6,1.5,1.1,3.2,1.1c1.6,0,2.5-0.8,2.5-1.9c0-0.8-0.5-1.4-1.9-1.7c-0.8-0.2-0.8-0.2-1.7-0.4
	c-2.2-0.6-3.3-1.6-3.3-3.3c0-2.2,1.8-3.6,4.4-3.6c1.3,0,2.6,0.4,3.3,1c0.5,0.4,0.4,1,0.1,1.3c-0.3,0.4-0.8,0.4-1.3,0.1
	c-0.7-0.4-1.4-0.7-2.3-0.7c-1.6,0-2.5,0.7-2.5,1.8c0,0.7,0.4,1.2,1.8,1.6c0.7,0.2,1.6,0.4,1.9,0.5C-306,307-304.9,308.1-304.9,309.8
	z"/>
<path fill="#FFFFFF" d="M-303.7,302c0-0.5,0.4-1,0.9-1s1,0.4,1,1v6.8c0,1.8,1.2,2.9,3.1,2.9c1.5,0,2.5-0.4,3.2-0.9V302
	c0-0.5,0.4-1,0.9-1s1,0.4,1,1v9.4c0,0.4-0.1,0.6-0.4,0.8c-0.7,0.5-2.3,1.4-4.7,1.4c-3,0-5-1.7-5-4.8V302z"/>
<path fill="#FFFFFF" d="M-275,312.4c0,0.6-0.4,1-0.9,1s-1-0.4-1-1v-6.7c0-2.2-0.9-3.1-2.7-3.1c-1.3,0-2.2,0.6-2.7,1.2v8.5
	c0,0.6-0.4,1-0.9,1s-1-0.4-1-1v-6.8c0-2-1-2.9-2.7-2.9c-1.8,0-2.6,0.7-2.7,0.8v9c0,0.6-0.4,1-0.9,1s-1-0.4-1-1V303
	c0-0.4,0.1-0.6,0.5-0.9c0.9-0.7,2.4-1.2,4-1.2c1.7,0,2.9,0.5,3.6,1.4c0.7-0.6,1.8-1.4,3.7-1.4c3.2,0,4.5,1.7,4.5,4.8v6.7H-275z"/>
<path fill="#FFFFFF" d="M-262.8,305.5c0.1,1,0.1,2.4,0,3.3c-0.2,2.7-2.3,4.7-5.2,4.7s-5.1-2-5.2-4.7c0-0.9,0-2.4,0-3.3
	c0.2-2.7,2.3-4.6,5.2-4.6C-265.2,300.8-263,302.7-262.8,305.5z M-271.4,305.6c0,0.8,0,2.3,0,3.1c0.2,1.8,1.4,3.1,3.3,3.1
	s3.2-1.2,3.3-3.1c0-0.8,0-2.2,0-3.1c-0.1-1.7-1.4-3-3.3-3S-271.3,303.9-271.4,305.6z"/>
<path fill="#FFFFFF" d="M-259.1,297.7v14.8c0,0.6-0.4,1-1,1c-0.5,0-0.9-0.4-0.9-1v-14.8c0-0.5,0.4-1,0.9-1
	C-259.5,296.7-259.1,297.1-259.1,297.7z"/>
<path fill="#FFFFFF" d="M-246.8,305.5c0.1,1,0.1,2.4,0,3.3c-0.2,2.7-2.3,4.7-5.2,4.7s-5.1-2-5.2-4.7c0-0.9,0-2.4,0-3.3
	c0.1-2.8,2.3-4.7,5.2-4.7S-247,302.7-246.8,305.5z M-255.4,305.6c0,0.8,0,2.3,0,3.1c0.2,1.8,1.4,3.1,3.3,3.1c1.9,0,3.2-1.2,3.3-3.1
	c0-0.8,0-2.2,0-3.1c-0.1-1.7-1.4-3-3.3-3C-254,302.6-255.2,303.9-255.4,305.6z"/>
<path fill="#FFFFFF" d="M-235.2,312.4c0,3.2-1.9,5.3-5.8,5.3c-0.8,0-1.7-0.1-2.6-0.3c-0.5-0.1-0.8-0.4-0.8-0.9s0.4-1.1,1.1-0.9
	c0.9,0.2,1.7,0.3,2.4,0.3c2.6,0,3.9-1.3,3.9-3.6c-0.8,0.4-2.1,0.8-3.5,0.8c-2.9,0-4.7-1.9-4.8-4.7c0-0.9,0-2,0-2.9
	c0.2-2.8,2.1-4.7,4.9-4.7c2.5,0,4.3,0.9,4.9,1.4c0.3,0.2,0.4,0.4,0.4,0.8L-235.2,312.4L-235.2,312.4z M-243.5,305.7
	c0,0.8,0,1.9,0,2.7c0.1,1.8,1.1,3,3,3s3-0.6,3.4-1v-7c-0.1-0.1-1.3-0.8-3.2-0.8C-242.4,302.6-243.3,303.9-243.5,305.7z"/>
<path fill="#FFFFFF" d="M-232,299.1c-0.7,0-1.1-0.6-1.1-1.2c0-0.7,0.5-1.2,1.1-1.2c0.7,0,1.2,0.5,1.2,1.2
	C-230.8,298.6-231.3,299.1-232,299.1z M-231,302v10.4c0,0.6-0.4,1-1,1c-0.5,0-0.9-0.4-0.9-1V302c0-0.5,0.4-1,0.9-1
	S-231,301.4-231,302z"/>
<path fill="#FFFFFF" d="M-220.9,309.7c0.2-0.5,0.5-0.6,0.9-0.6c0.5,0,0.9,0.4,0.9,1c0,1.1-1.6,3.4-4.8,3.4c-3,0-5.1-2.1-5.2-4.7
	c0-0.9,0-2.4,0-3.3c0.2-2.7,2.3-4.6,5.2-4.6c3.3,0,4.8,2.4,4.8,3.4c0,0.6-0.4,1-0.9,1c-0.4,0-0.7-0.2-0.9-0.6c-0.5-1.4-1.7-2-2.9-2
	c-2,0-3.2,1.2-3.4,3c0,0.6,0,2.3,0,3.1c0.2,1.7,1.3,3.1,3.4,3.1C-222.7,311.7-221.5,311.1-220.9,309.7z"/>
<path fill="#FFFFFF" d="M-322.7,306.3h-1.5h-0.8h-0.1v-0.2v-0.6v-1.6c0-0.5-0.4-1-1-1c-0.5,0-0.9,0.4-0.9,1v1.6v0.6v0.2h-0.1h-0.7
	h-1.6c-0.5,0-1,0.4-1,1c0,0.5,0.4,0.9,1,0.9h1.6h0.6h0.2v0.2v0.8v1.5c0,0.5,0.4,1,1,1c0.5,0,0.9-0.4,0.9-1v-1.5v-0.8v-0.2h0.2h0.8
	h1.5c0.5,0,1-0.4,1-1C-321.7,306.6-322.2,306.3-322.7,306.3z"/>
<g>
	<path fill="#FFFFFF" d="M-219.1,299.1c0-0.4,0.1-0.8,0.3-1.2c0.2-0.4,0.5-0.7,0.8-0.9c0.3-0.2,0.7-0.3,1.1-0.3s0.8,0.1,1.1,0.3
		c0.3,0.2,0.6,0.5,0.8,0.9c0.2,0.4,0.3,0.8,0.3,1.2s-0.1,0.8-0.3,1.2c-0.2,0.4-0.5,0.7-0.8,0.9c-0.3,0.2-0.7,0.3-1.1,0.3
		s-0.8-0.1-1.1-0.3c-0.3-0.2-0.6-0.5-0.8-0.9C-219.1,299.9-219.1,299.5-219.1,299.1z M-218.8,299.1c0,0.4,0.1,0.7,0.3,1
		c0.2,0.3,0.4,0.5,0.7,0.7c0.3,0.2,0.6,0.3,0.9,0.3c0.3,0,0.7-0.1,0.9-0.3c0.3-0.2,0.5-0.4,0.7-0.7c0.2-0.3,0.2-0.6,0.2-1
		s-0.1-0.7-0.2-1c-0.2-0.3-0.4-0.5-0.7-0.7c-0.3-0.2-0.6-0.3-0.9-0.3c-0.3,0-0.7,0.1-0.9,0.3c-0.3,0.2-0.5,0.4-0.7,0.7
		C-218.7,298.4-218.8,298.8-218.8,299.1z M-217.4,299.4v1.1h-0.4v-2.7h0.9c0.3,0,0.6,0.1,0.8,0.2c0.2,0.1,0.3,0.3,0.3,0.6
		c0,0.3-0.1,0.5-0.4,0.6c0.3,0.1,0.4,0.3,0.4,0.6v0.2c0,0.2,0,0.3,0.1,0.4v0.1h-0.5c0-0.1,0-0.2,0-0.4c0-0.2,0-0.3,0-0.3
		c0-0.2-0.2-0.3-0.4-0.3L-217.4,299.4L-217.4,299.4z M-217.4,299h0.5c0.2,0,0.3,0,0.4-0.1c0.1-0.1,0.1-0.2,0.1-0.3
		c0-0.2,0-0.3-0.1-0.3c-0.1-0.1-0.2-0.1-0.4-0.1h-0.4L-217.4,299L-217.4,299z"/>
</g>
</svg>
